<svg width="95" height="111" viewBox="0 0 95 111" fill="none" xmlns="http://www.w3.org/2000/svg" class="h-full w-auto max-w-none"><path d="M68.006 83.066a6.37 6.37 0 0 1 9.016.015 6.394 6.394 0 0 1-.014 9.032L65.935 103.17c-10.216 10.201-26.875 10.349-37.263.343-.06-.057-4.686-4.593-19.945-19.556-10.152-9.954-11.164-25.882-1.61-36.11l17.811-19.072c9.482-10.153 26.959-11.263 37.8-2.496l16.177 13.083a6.394 6.394 0 0 1 .956 8.98 6.37 6.37 0 0 1-8.966.958L54.718 36.217c-5.67-4.584-15.587-3.955-20.479 1.284L16.427 56.573c-4.65 4.98-4.14 13.001 1.219 18.256l19.85 19.465c5.402 5.202 14.134 5.124 19.437-.17z" fill="#FFA116"/><path fill-rule="evenodd" clip-rule="evenodd" d="M41.107 72.001c-3.521 0-6.376-2.859-6.376-6.386s2.855-6.386 6.376-6.386h47.018c3.52 0 6.375 2.859 6.375 6.386s-2.855 6.386-6.376 6.386z" fill="#B3B3B3"/><path fill-rule="evenodd" clip-rule="evenodd" d="M49.912 2.023a6.367 6.367 0 0 1 9.01-.3 6.394 6.394 0 0 1 .3 9.026L16.429 56.573c-4.651 4.979-4.142 13 1.217 18.256L37.41 94.21a6.394 6.394 0 0 1 .096 9.031 6.367 6.367 0 0 1-9.016.097L8.726 83.957c-10.151-9.955-11.163-25.883-1.61-36.11z" fill="#fff"/></svg>